<?xml version="1.0" standalone="yes"?>
<svg xmlns="http://www.w3.org/2000/svg" width="1555" height="2200">
<path style="fill:#ffffff; stroke:none;" d="M0 0L0 2200L1555 2200L1555 0L0 0z"/>
<path style="fill:#060606; stroke:none;" d="M779 704C779 733.966 776.35 764.076 775.039 794C773.728 823.953 774.959 854.089 772.911 884C770.389 920.816 766.496 957.432 761.271 994C757.526 1020.21 754.045 1046.77 745.667 1072C742.888 1080.37 739.936 1092.28 733.61 1098.72C729.851 1102.55 722.995 1103.69 718 1105.13C702.52 1109.58 685.012 1110.74 669 1112C674.468 1114.63 681.058 1114.94 687 1115.92C697.171 1117.59 707.092 1119.29 717 1122.14C721.933 1123.56 728.805 1124.77 732.61 1128.42C739.307 1134.85 742.475 1147.43 745.333 1156C753.645 1180.93 756.714 1207.13 760.428 1233C765.529 1268.53 769.461 1304.23 771.911 1340C773.527 1363.6 772.004 1387.36 773.039 1411C774.756 1450.21 777 1489.74 777 1529L779 1529C779.156 1472.32 780.479 1415.67 782.961 1359C784.974 1313.02 786.197 1267.51 794.386 1222C798.737 1197.82 802.496 1173.67 809.291 1150C811.516 1142.25 813.482 1129.23 819.418 1123.43C823.801 1119.15 833.223 1118.88 839 1117.92C856.26 1115.06 874.516 1113.05 892 1113C883.911 1109.6 874.419 1111.92 866 1111.92C856.452 1111.92 846.475 1110.51 837 1109.28C831.612 1108.58 823.516 1108.73 819.394 1104.69C814.537 1099.92 813.076 1090.29 811.001 1084C804.621 1064.67 800.691 1044.08 797.576 1024C793.854 1000.02 789.483 976.189 787.17 952C784.881 928.059 785.012 904.007 783.961 880C782.751 852.374 781.692 824.65 781.015 797C780.468 774.696 781 752.312 781 730C781 722.772 783.472 709.902 779 704z"/>
</svg>
