<?xml version="1.0" standalone="yes"?>
<svg xmlns="http://www.w3.org/2000/svg" width="1555" height="2200">
<path style="fill:#ffffff; stroke:none;" d="M0 0L0 2200L1555 2200L1555 0L0 0z"/>
<path style="fill:#060606; stroke:none;" d="M776 857C771.803 879.593 772.932 902.393 769.791 925C765.826 953.536 758.42 981.422 747.309 1008C739.63 1026.37 730.107 1039.89 716 1054C708.804 1061.2 701.46 1068.1 692 1072.25C667.699 1082.91 638.852 1080.91 613 1082.04C600.014 1082.61 586.902 1084.99 574 1085C576.905 1086.22 579.893 1085.86 583 1086.3C591.824 1087.56 600.093 1087.65 609 1088.04C636.101 1089.23 666.434 1088.35 692 1098.47C706.108 1104.06 716.209 1114.97 726.17 1126C751.893 1154.48 761.77 1193.05 768.255 1230C769.48 1236.97 771.144 1243.9 771.83 1251C772.44 1257.3 771.657 1263.69 772.089 1270C772.745 1279.57 773.046 1289.49 774.184 1299C774.717 1303.45 775.962 1307.46 776 1312C779.69 1309.61 778.778 1306.03 779.17 1302C779.892 1294.57 780.712 1287.47 781.039 1280C782.353 1249.99 786.029 1221.07 794.086 1192C801.118 1166.63 812.212 1143.47 829.83 1124C837.228 1115.82 845.161 1107.04 855 1101.7C879.334 1088.52 909.233 1090.13 936 1088.96C950.683 1088.32 965.397 1086 980 1086C967.942 1080.93 952.721 1084.04 940 1082.83C919.001 1080.83 896.557 1082.49 876 1077.08C851.693 1070.67 831.888 1051.32 818.029 1031C810.187 1019.51 805.248 1006.05 800.659 993C791.371 966.588 785.821 938.862 783.17 911C781.886 897.515 782.295 884.5 780.08 871C779.326 866.401 780.044 859.857 776 857z"/>
</svg>
