<?xml version="1.0" standalone="yes"?>
<svg xmlns="http://www.w3.org/2000/svg" width="1555" height="2200">
<path style="fill:#ffffff; stroke:none;" d="M0 0L0 2200L1555 2200L1555 0L0 0z"/>
<path style="fill:#060606; stroke:none;" d="M710 716C710 745.959 707.349 776.08 706.039 806C704.801 834.291 705.845 862.749 703.911 891C701.755 922.473 698.183 953.666 694.285 985C691.005 1011.36 687.588 1038.67 679.33 1064C676.423 1072.92 673.615 1084.53 667.363 1091.78C663.509 1096.24 656.414 1096.95 651 1098.23C636.743 1101.61 621.706 1103.96 607 1104L607 1106C621.546 1106.63 638.09 1110.01 652 1114.35C656.946 1115.89 663.721 1117.1 667.2 1121.22C672.898 1127.98 675.588 1138.76 678.333 1147C686.613 1171.86 689.541 1198.18 693.13 1224C698.576 1263.17 702.233 1302.54 703.961 1342C704.573 1355.98 703.427 1370.02 704.039 1384C705.727 1422.55 708 1461.4 708 1500C710.389 1496.01 710 1491.53 710 1487L710 1466C710 1438.28 710.675 1410.68 711.004 1383C711.229 1364.03 713.131 1344.95 713.961 1326C714.75 1307.98 714.857 1289.99 716.089 1272C717.605 1249.87 721.177 1227.91 724.576 1206C728.561 1180.3 732.613 1153.37 742 1129C749.659 1141.08 752.98 1157.12 755.801 1171C760.29 1193.09 763.765 1215.59 766.166 1238C769.626 1270.29 773.541 1302.57 774.961 1335C776.098 1360.98 774.902 1387.02 776.039 1413C777.262 1440.92 779 1469.05 779 1497L781 1497C781 1448.66 781.844 1400.34 783.961 1352C785.438 1318.26 785.803 1284.65 789.169 1251C791.877 1223.93 796.609 1196.63 802.004 1170C804.306 1158.64 808.315 1147.45 810 1136C816.14 1142.35 817.714 1154.6 819.651 1163C824.883 1185.68 828.381 1208.89 831.155 1232C835.55 1268.61 839.349 1305.2 840.961 1342C842.142 1368.98 840.858 1396.03 842.039 1423C843.116 1447.58 844.932 1472.4 845 1497L847 1497C847 1439.8 848.464 1383.02 850.961 1326C851.618 1311 851.063 1295.98 852.089 1281C853.603 1258.9 856.811 1236.94 859.87 1215C863.275 1190.57 867.88 1165.74 874.579 1142C876.709 1134.45 878.762 1121.14 884.499 1115.51C889.173 1110.93 898.873 1110.74 905 1110.05C920.663 1108.29 936.201 1106 952 1106L952 1104C935.641 1104 919.225 1104.58 903 1102.27C897.708 1101.52 889.58 1101.85 885.225 1098.41C879.407 1093.82 878.198 1082.66 875.999 1076C868.403 1052.98 864.22 1027.98 860.87 1004C847.797 910.438 848 815.259 848 721C845.184 727.274 846.464 734.336 845.83 741C844.09 759.283 845.164 777.695 843.911 796C842.342 818.902 841.577 842.05 841.015 865C840.803 873.641 841.501 882.375 840.911 891C838.483 926.446 834.636 961.814 829.427 997C826.586 1016.19 823.609 1035.1 819.116 1054C817.321 1061.55 815.49 1072.32 810 1078C809.438 1071.56 807.096 1065.3 805.651 1059C803.144 1048.08 800.915 1037.01 798.805 1026C793.067 996.066 789.17 965.384 787.089 935C783.679 885.196 783.237 834.906 782.015 785C781.514 764.547 783.614 744.447 782 724C778.545 732.009 780.636 741.532 779.83 750C777.476 774.739 777.292 800.135 776.996 825C776.325 881.417 771.638 937.053 764.282 993C761.981 1010.49 759.231 1027.76 755.424 1045C752.418 1058.61 749.065 1072.85 742 1085C734.935 1063.29 730.907 1041.37 726.739 1019C715.371 957.974 713.529 895.839 712.015 834C711.456 811.199 709.529 787.785 711.089 765C711.94 752.574 712.353 740.434 711.17 728C710.786 723.964 711.583 719.772 710 716z"/>
</svg>
