<?xml version="1.0" standalone="yes"?>
<svg xmlns="http://www.w3.org/2000/svg" width="1555" height="2200">
<path style="fill:#ffffff; stroke:none;" d="M0 0L0 2200L1555 2200L1555 0L0 0z"/>
<path style="fill:#050505; stroke:none;" d="M880 784C876.48 801.063 876.103 817.696 874.911 835C874.258 844.468 871.855 853.726 870.095 863C864.209 894.007 854.225 924.795 832.089 947.985C817.683 963.079 801.466 973.557 780 974C779.061 966.579 776.883 959.456 776.17 952C775.184 941.692 775.824 931.271 774.83 921C773.989 912.309 771.185 903.7 771 895L769 895C768.012 902.335 765.632 909.615 765.09 917C764.135 930.037 765.302 943.108 762.664 956C761.656 960.931 762.167 970.699 758.4 974.397C755.776 976.973 748.516 976.67 745 976.911C737.025 977.457 728.972 976.506 721 977.09C715.908 977.464 711.161 978.957 706 979C715.907 983.159 729.388 981.983 740 982C746.04 982.01 751.953 982.996 758 983C750.327 1011.7 740.868 1038.09 720.17 1059.96C712.33 1068.25 703.819 1076.09 693 1080.24C683.961 1083.7 673.618 1084.99 664 1085C663.803 1076.59 660.706 1068.4 660.09 1060C658.804 1042.47 660.174 1024.03 655 1007C652.308 1010.94 652.766 1016.37 651.789 1021C648.882 1034.78 648.988 1049.9 648.025 1064C647.647 1069.53 647.886 1081.43 643.486 1085.4C640.133 1088.42 633.15 1086.86 629 1087.04C617.663 1087.54 606.303 1089.77 595 1090C598.125 1091.31 601.639 1091.07 605 1091.59C617.597 1093.55 630.27 1093 643 1093C639.112 1121.87 625.251 1153.23 604.985 1174C598.563 1180.58 591.518 1187.97 583 1191.81C560.87 1201.81 535.626 1200 512 1201.04C501.596 1201.49 491.354 1203.18 481 1204C484.201 1205.34 487.582 1204.81 491 1205.3C499.493 1206.51 507.379 1207 516 1207C539.16 1207 568.619 1206.46 589 1219.11C622.523 1239.92 637.461 1280.27 644.808 1317C646.066 1323.29 648.128 1329.64 648.872 1336C650.535 1350.2 650.933 1364.73 651.911 1379C652.348 1385.39 651.155 1392.47 655 1398C660.1 1380.91 657.222 1362.43 659.286 1345C663.91 1305.94 674.466 1262.58 703 1234C709.608 1227.38 716.392 1220.33 725 1216.32C736.561 1210.95 749.346 1209 762 1209C762.085 1216.68 764.381 1224.27 764.911 1232C766.127 1249.77 766.719 1267.34 769 1285L771 1285C771.006 1275.88 773.289 1267.08 773.911 1258C774.624 1247.58 773.564 1237.38 775.246 1227C776.076 1221.89 775.371 1212.34 779.514 1208.6C782.786 1205.65 789.932 1207 794 1207C805.382 1207 816.631 1205.01 828 1205C821.174 1201.72 812.416 1202.17 805 1201.99C796.655 1201.78 788.397 1201 780 1201C783.338 1173.76 796.578 1144.21 814.83 1124C820.895 1117.29 827.177 1110.23 835 1105.48C846.55 1098.46 858.865 1096.66 872 1095C873.056 1108.38 875.988 1121.52 876.911 1135C877.802 1148.01 876.263 1162.39 880 1175C883.935 1169.81 883.235 1159.44 884.13 1153C885.565 1142.68 884.17 1132.33 885.17 1122C886.114 1112.25 889.037 1102.68 890 1093C900.601 1093 911.424 1093.63 922 1092.91C929.378 1092.41 936.578 1091 944 1091C934.966 1087.17 923.642 1088.05 914 1088C906.653 1087.96 899.385 1087 892 1087C895.452 1060.27 907.898 1032.85 925.83 1013C933.984 1003.97 942.563 995.254 954 990.499C971.157 983.367 989.844 983.756 1008 982.961C1017.59 982.541 1027.41 982.582 1037 981.911C1043.44 981.459 1049.48 980.001 1056 980C1045.52 975.602 1031.2 977.129 1020 976.996C996.469 976.716 966.29 977.039 946 963.402C909.088 938.593 893.852 889.934 888.114 848C886.361 835.189 885.392 821.906 885.014 809C884.794 801.483 884.716 790.128 880 784z"/>
<path style="fill:#ffffff; stroke:none;" d="M783 985C783.336 996.631 788.998 1009.36 793.435 1020C806.634 1051.66 831.372 1084.22 869 1085C868.552 1074.73 864.423 1064.53 860.85 1055C848.197 1021.25 822.532 985.815 783 985M667 1095C667.208 1104.78 671.293 1114.82 674.421 1124C687.539 1162.52 714.863 1198.99 759 1199C758.655 1190.98 755.69 1183.6 753.366 1176C745.021 1148.72 729.823 1119.2 704 1104.53C692.382 1097.92 679.925 1096.63 667 1095z"/>
</svg>
