<?xml version="1.0" standalone="yes"?>
<svg xmlns="http://www.w3.org/2000/svg" width="1555" height="2200">
<path style="fill:#ffffff; stroke:none;" d="M0 0L0 2200L1555 2200L1555 0L0 0z"/>
<path style="fill:#050505; stroke:none;" d="M785 839C783.004 864.29 781.413 889.177 771.799 913C766.368 926.458 756.478 940.881 743 947.366C726.618 955.247 703.758 953.634 686 954C689.912 956.672 694.438 955.839 699 956.039C705.327 956.316 711.656 956.761 718 957.039C735.409 957.802 748.464 962.759 760.155 976.001C763.776 980.101 770.522 986.867 770.292 992.895C770.168 996.134 766.448 997.507 763.999 998.752C757.503 1002.06 750.814 1004.85 744 1007.42C715.198 1018.29 684.19 1021.97 654 1026.92C602.312 1035.4 549.245 1040.67 497 1042.96C460.711 1044.55 424.309 1044.13 388 1045.01C357.405 1045.76 326.604 1046.7 296 1048.04C285.662 1048.49 275.368 1050 265 1050C269.326 1051.82 274.373 1050.73 279 1051.17C292.932 1052.5 306.994 1052 321 1052C361.699 1052 402.386 1052.26 443 1054.04C509.615 1056.96 576.977 1057.26 643 1068.29C671.119 1072.98 699.227 1077.85 727 1084.34C740.005 1087.37 752.826 1093.06 766 1095C764.14 1100.83 760.151 1105.62 755.961 1110C751.256 1114.92 746.274 1119.67 740 1122.5C730.522 1126.77 719.174 1126.59 709 1127.04C699.337 1127.46 689.663 1128.58 680 1129C686.614 1131.78 695.882 1131 703 1131C715.335 1131 729.433 1131.32 741 1136.09C747.056 1138.59 751.466 1143.45 755.999 1148C773.212 1165.29 779.576 1192.33 781.83 1216C782.72 1225.35 781.802 1234.77 784 1244C788.296 1235.92 786.651 1224.85 787.039 1216C787.474 1206.08 790.303 1195.63 792.528 1186C796.834 1167.37 808.946 1144.87 827 1136.52C840.543 1130.25 856.449 1131.17 871 1131C877.024 1130.92 882.945 1130 889 1130C882.791 1127.32 875.598 1128.36 869 1127.91C856.158 1127.03 840.988 1127.98 829 1122.65C823.051 1120.01 818.52 1115.56 814.004 1111C810.077 1107.03 806.497 1103.01 804 1098C860.809 1079.48 920.435 1067.86 980 1062.17C1016.65 1058.67 1053.25 1058.57 1090 1056.96C1159.29 1053.93 1228.65 1053 1298 1053C1292.23 1050.56 1285.17 1051.23 1279 1050.96C1269.99 1050.57 1261.04 1050.21 1252 1049.99C1224.07 1049.3 1195.94 1048.18 1168 1046.96C1130.04 1045.3 1091.92 1045.51 1054 1042.91C1005.77 1039.61 957.856 1032.75 910 1025.87C882.586 1021.93 854.829 1016.65 829 1006.4C821.898 1003.58 807.53 999.747 804.423 991.985C801.425 984.496 812.508 975.443 817 971.004C835.754 952.473 865.658 956.921 890 955C884.281 952.599 876.182 953 870 953C858.382 952.999 845.036 953.568 834 949.381C819.726 943.966 809.347 931.379 802.756 918C790.443 893.003 790.472 865.885 787 839L785 839z"/>
</svg>
