<?xml version="1.0" standalone="yes"?>
<svg xmlns="http://www.w3.org/2000/svg" width="1555" height="2200">
<path style="fill:#ffffff; stroke:none;" d="M0 0L0 2200L1555 2200L1555 0L0 0z"/>
<path style="fill:#040404; stroke:none;" d="M776 677.072C771.038 678.999 766.811 684.38 763 687.911C755.031 695.296 746.872 702.472 739 709.961C714.407 733.359 688.86 755.793 664 778.911C580.776 856.301 497.273 933.583 413 1009.83C384.832 1035.32 356.521 1060.78 329 1086.96C322.85 1092.81 316.577 1098.83 310 1104.2C307.322 1106.38 302.719 1109.09 302.621 1113C302.529 1116.7 306.254 1119.2 308.615 1121.46C314.515 1127.1 320.346 1133.03 325.91 1139C349.348 1164.16 372.745 1189.63 397.001 1214C450.867 1268.13 502.269 1324.81 555.039 1380C582.09 1408.29 608.993 1436.72 636.039 1465C647.849 1477.35 660.413 1489.19 671.714 1502C696.987 1530.65 724.871 1557.05 750.911 1585C757.158 1591.71 763.658 1598.23 769.83 1605C772.124 1607.52 774.931 1612.07 778.961 1611.11C782.304 1610.31 784.806 1606.33 787.039 1604C793.071 1597.69 798.824 1591.18 805 1585C829.975 1560.02 854.012 1533.85 878.089 1508C928.675 1453.7 980.67 1400.64 1031.96 1347C1070.07 1307.15 1107.04 1266.02 1146 1227C1173.98 1198.97 1200.01 1169.01 1228 1141C1234.44 1134.55 1240.24 1127.41 1246.99 1121.29C1249.45 1119.05 1253.85 1115.91 1252.69 1112C1251.67 1108.55 1247.53 1106.11 1245 1103.83C1237.96 1097.46 1231.17 1090.8 1224 1084.58C1201.19 1064.76 1178.9 1043.79 1157 1022.96C1120.93 988.647 1083.43 955.834 1047 921.911C993.648 872.233 940.058 822.74 886 773.83C858.766 749.19 831.895 724.099 805 699.089C798.409 692.961 791.731 686.906 785 680.93C782.46 678.675 779.703 675.633 776 677.072z"/>
<path style="fill:#ffffff; stroke:none;" d="M314 1113C317.4 1117.83 321.878 1121.63 325.83 1126C338.19 1139.66 351.12 1152.81 363.985 1166C391.626 1194.33 418.599 1223.38 445.961 1252C493.671 1301.9 541.854 1351.48 588.911 1402C613.313 1428.2 637.688 1454.68 663 1480C691.658 1508.67 718.498 1539.16 746.996 1568C754.119 1575.21 760.861 1582.78 767.996 1590C770.284 1592.31 773.611 1597.64 777.089 1598.08C780.236 1598.48 783.026 1594.93 785 1593C791.237 1586.88 796.823 1580.18 803 1574C828.995 1548 853.631 1520.57 879.039 1494L1052.96 1312C1085.04 1278.45 1116.18 1243.83 1149 1211C1160.34 1199.66 1170.96 1187.59 1182.04 1176C1194.15 1163.34 1207.08 1151.23 1218.58 1138C1223.75 1132.04 1229.53 1126.72 1234.96 1121C1236.85 1119.01 1240.11 1116.15 1239.88 1113.09C1239.52 1108.19 1229.49 1101.6 1226 1098.58C1213 1087.28 1201 1074.87 1188 1063.58C1137.11 1019.36 1089.56 971.31 1039 926.714C1002.31 894.357 966.802 860.425 931 827.089C903.544 801.525 875.014 777.02 848 750.989C831.36 734.955 813.639 720.044 797 704.011C792.755 699.921 788.286 696.069 784 692.019C782.39 690.498 780.427 688.211 778 688.207C774.692 688.201 771.3 692.431 769 694.424C761.449 700.968 754.412 708.127 747 714.83C717.782 741.256 689.212 768.4 660 794.83C588.804 859.245 519.194 925.416 448 989.83C419.474 1015.64 391.172 1041.71 363 1067.91C346.767 1083.01 329.742 1097.39 314 1113z"/>
<path style="fill:#040404; stroke:none;" d="M759 733C757.095 740.731 756.782 748.751 753.191 756C746.859 768.779 736.991 777.269 727 787.015C714.122 799.577 701.238 811.912 688 824.086C636.752 871.214 585.225 918.242 533 964.286C515.456 979.753 498.661 996.089 481 1011.42C472.143 1019.12 465.607 1027 453 1024C452.818 1029.12 456.596 1032.31 459.845 1036C465.961 1042.95 472.453 1049.45 479 1056L531 1108C541.165 1118.16 551.222 1129.7 563 1138C553.117 1120.9 536.529 1109.33 530.004 1090C528.606 1085.86 526.326 1080.47 526.757 1076.01C527.199 1071.45 532.948 1067.95 536 1065.01C545.716 1055.65 555.814 1046.42 566 1037.58C585.468 1020.66 604.116 1002.65 623 985.089C639.586 969.666 656.979 955.02 673 939C673 1043.73 674 1148.3 674 1253C674 1293.52 672.145 1334.61 674.911 1375C675.591 1384.94 673.051 1396.3 675.418 1406C676.947 1412.26 681.972 1418.43 685.15 1424C691.588 1435.28 697.815 1446.66 704.14 1458C723.276 1492.3 741.178 1527.5 758 1563C760.395 1557.29 759 1549.15 759 1543L759 1502L759 1356C759 1208.71 760 1061.36 760 914C760 871.624 761 829.323 761 787C761 774.943 760.308 762.996 760.015 751C759.875 745.315 761.219 738.287 759 733M796 733C793.552 741.28 795 751.393 795 760L795 811C795 869.027 796 927.04 796 985C796 1177.38 797 1369.68 797 1562C803.991 1555.02 807.806 1541.88 812.247 1533C822.321 1512.85 832.93 1493.01 843.258 1473C851.118 1457.77 859.811 1442.9 868.281 1428C872.219 1421.07 878.153 1413.69 880.362 1406C883.498 1395.09 881 1380.33 881 1369C881 1341.42 879.833 1313.55 881.039 1286C883.309 1234.16 882 1181.94 882 1130C882 1066.7 883 1003.36 883 940C895.57 950.237 906.981 961.959 919 972.83C943.146 994.669 966.854 1016.99 991 1038.83C999.695 1046.69 1008.15 1054.89 1017 1062.58C1020.95 1066.01 1027.6 1070.5 1028.59 1076C1029.45 1080.72 1026.81 1086.61 1025.33 1091C1019.46 1108.45 1004.91 1120.02 995 1135C999.385 1132.96 1002.4 1129.46 1006 1126.29C1014.37 1118.91 1022.11 1110.89 1030 1103C1047.13 1085.87 1064.54 1068.98 1081.12 1051.32C1088.97 1042.95 1098.64 1035.39 1104 1025C1099.32 1024.21 1094.58 1025.69 1090 1023.77C1081.65 1020.28 1074.74 1011.28 1068 1005.42C1050.34 990.09 1033.56 973.742 1016 958.286C973.83 921.159 932.761 882.755 891 845.169C872.003 828.071 853.467 810.698 835 793.039C825.016 783.493 814.008 774.756 806.439 763C802.996 757.652 800.447 752.177 798.895 746C797.827 741.748 797.721 736.99 796 733M430 1054C429.997 1079.36 426.783 1118.95 400 1131.1C387.391 1136.82 373.172 1133.55 360 1136C363.757 1137.58 367.971 1136.86 372 1137.04C380.508 1137.41 391.096 1137.51 399 1140.97C408.45 1145.09 415.825 1154.8 419.846 1164C427.389 1181.26 429.615 1200.34 430 1219L432 1219C432.518 1193.89 435.886 1155.52 461 1142.05C472.202 1136.04 488.629 1137 501 1137C496.029 1134.02 489.611 1135.03 484 1135C476.775 1134.96 468.642 1134.11 462 1131.1C438.99 1120.66 433.936 1089.26 432.961 1067C432.769 1062.63 432.012 1058.39 432 1054L430 1054M1125 1055C1122.79 1061.99 1123.64 1068.87 1122.71 1076C1120.17 1095.59 1113.43 1123.07 1093 1131.52C1080.7 1136.6 1067.21 1132.39 1055 1136C1058.21 1137.35 1061.55 1136.85 1065 1137.09C1074.31 1137.73 1085.3 1137.36 1094 1141.11C1115.98 1150.57 1121.83 1180.94 1123.83 1202C1124.38 1207.74 1123.65 1213.34 1125 1219C1129.12 1209.45 1126.58 1197.19 1128.67 1187C1132.2 1169.74 1139.41 1148.44 1157 1140.88C1168.29 1136.03 1183.9 1137 1196 1137C1191.55 1133.63 1184.39 1135.03 1179 1135C1170.27 1134.96 1160.5 1133.86 1153 1129.03C1137.18 1118.85 1130.29 1096.79 1128.17 1079C1127.28 1071.51 1127.91 1061.93 1125 1055z"/>
</svg>
